<svg width="32" height="32" viewBox="0 0 32 32" fill="none" xmlns="http://www.w3.org/2000/svg">
<path d="M0.928354 31.0891C2.16616 32.3036 4.17467 32.3036 5.41248 31.0891L16.288 20.4068L26.5719 31.0891C27.8098 32.3036 29.8183 32.3036 31.0561 31.0891C32.2939 29.8745 32.2939 27.8968 31.0561 26.6822L20.7877 16L31.0716 5.31776C32.3094 4.10316 32.3094 2.12555 31.0716 0.910949C29.8338 -0.30365 27.8253 -0.30365 26.5875 0.910949L16.2958 11.5932L5.42026 0.910949C4.18246 -0.30365 2.17394 -0.30365 0.936139 0.910949C-0.301666 2.12555 -0.301666 4.10316 0.936139 5.31776L11.8117 15.9922L0.928354 26.6822C-0.309451 27.8968 -0.309451 29.8667 0.928354 31.0891Z" fill="black"/>
</svg>
